<?xml version="1.0" encoding="UTF-8" standalone="no"?>
<!DOCTYPE svg PUBLIC "-//W3C//DTD SVG 1.1//EN" "http://www.w3.org/Graphics/SVG/1.1/DTD/svg11.dtd">
<svg xmlns="http://www.w3.org/2000/svg" version="1.1" viewBox="0.00 0.00 163.00 163.00">
<g stroke-width="2.00" fill="none" stroke-linecap="butt">
<path stroke="#ffffff" vector-effect="non-scaling-stroke" d="
  M 92.51 77.58
  Q 93.20 75.95 93.17 73.49
  Q 93.02 62.76 93.06 43.39
  A 0.35 0.35 0.0 0 1 93.41 43.04
  L 143.70 43.04
  A 0.32 0.31 90.0 0 0 144.01 42.72
  L 144.01 34.29
  A 0.41 0.41 0.0 0 0 143.60 33.88
  L 83.33 33.88
  A 0.38 0.38 0.0 0 0 82.95 34.26
  L 82.95 68.12
  A 4.67 4.67 0.0 0 0 84.62 71.70
  L 91.78 77.76
  A 0.47 0.46 31.1 0 0 92.51 77.58"
/>
<path stroke="#ffffff" vector-effect="non-scaling-stroke" d="
  M 145.35 127.72
  L 145.35 81.77
  A 0.78 0.78 0.0 0 0 144.57 80.99
  L 111.32 80.99
  A 0.67 0.67 0.0 0 0 110.65 81.66
  L 110.65 89.08
  A 0.88 0.87 -90.0 0 0 111.52 89.96
  L 135.21 89.96
  A 0.74 0.74 0.0 0 1 135.95 90.70
  L 135.95 117.40
  A 1.45 1.45 0.0 0 1 134.55 118.85
  Q 121.63 119.27 113.09 119.01
  Q 110.39 118.92 108.78 117.37
  Q 72.75 82.48 49.57 59.15
  C 40.35 49.87 31.65 41.98 24.05 34.88
  A 0.52 0.52 0.0 0 0 23.17 35.26
  L 23.17 127.70
  A 0.13 0.13 0.0 0 0 23.30 127.83
  L 32.49 127.83
  A 0.10 0.10 0.0 0 0 32.59 127.73
  L 32.59 56.13
  A 0.16 0.16 0.0 0 1 32.84 55.99
  Q 34.99 57.47 36.39 58.81
  Q 46.97 68.93 64.15 86.34
  Q 69.62 91.88 84.20 105.64
  Q 92.34 113.31 104.12 125.37
  Q 106.76 128.07 110.49 127.99
  Q 116.12 127.86 145.14 127.94
  A 0.22 0.21 -90.0 0 0 145.35 127.72"
/>
</g>
<path fill="#000000" d="
  M 163.00 0.00
  L 163.00 163.00
  L 0.00 163.00
  L 0.00 0.00
  L 163.00 0.00
  Z
  M 92.51 77.58
  Q 93.20 75.95 93.17 73.49
  Q 93.02 62.76 93.06 43.39
  A 0.35 0.35 0.0 0 1 93.41 43.04
  L 143.70 43.04
  A 0.32 0.31 90.0 0 0 144.01 42.72
  L 144.01 34.29
  A 0.41 0.41 0.0 0 0 143.60 33.88
  L 83.33 33.88
  A 0.38 0.38 0.0 0 0 82.95 34.26
  L 82.95 68.12
  A 4.67 4.67 0.0 0 0 84.62 71.70
  L 91.78 77.76
  A 0.47 0.46 31.1 0 0 92.51 77.58
  Z
  M 145.35 127.72
  L 145.35 81.77
  A 0.78 0.78 0.0 0 0 144.57 80.99
  L 111.32 80.99
  A 0.67 0.67 0.0 0 0 110.65 81.66
  L 110.65 89.08
  A 0.88 0.87 -90.0 0 0 111.52 89.96
  L 135.21 89.96
  A 0.74 0.74 0.0 0 1 135.95 90.70
  L 135.95 117.40
  A 1.45 1.45 0.0 0 1 134.55 118.85
  Q 121.63 119.27 113.09 119.01
  Q 110.39 118.92 108.78 117.37
  Q 72.75 82.48 49.57 59.15
  C 40.35 49.87 31.65 41.98 24.05 34.88
  A 0.52 0.52 0.0 0 0 23.17 35.26
  L 23.17 127.70
  A 0.13 0.13 0.0 0 0 23.30 127.83
  L 32.49 127.83
  A 0.10 0.10 0.0 0 0 32.59 127.73
  L 32.59 56.13
  A 0.16 0.16 0.0 0 1 32.84 55.99
  Q 34.99 57.47 36.39 58.81
  Q 46.97 68.93 64.15 86.34
  Q 69.62 91.88 84.20 105.64
  Q 92.34 113.31 104.12 125.37
  Q 106.76 128.07 110.49 127.99
  Q 116.12 127.86 145.14 127.94
  A 0.22 0.21 -90.0 0 0 145.35 127.72
  Z"
/>
<path fill="#ffffff" d="
  M 91.78 77.76
  L 84.62 71.70
  A 4.67 4.67 0.0 0 1 82.95 68.12
  L 82.95 34.26
  A 0.38 0.38 0.0 0 1 83.33 33.88
  L 143.60 33.88
  A 0.41 0.41 0.0 0 1 144.01 34.29
  L 144.01 42.72
  A 0.32 0.31 -90.0 0 1 143.70 43.04
  L 93.41 43.04
  A 0.35 0.35 0.0 0 0 93.06 43.39
  Q 93.02 62.76 93.17 73.49
  Q 93.20 75.95 92.51 77.58
  A 0.47 0.46 31.1 0 1 91.78 77.76
  Z"
/>
<path fill="#ffffff" d="
  M 145.14 127.94
  Q 116.12 127.86 110.49 127.99
  Q 106.76 128.07 104.12 125.37
  Q 92.34 113.31 84.20 105.64
  Q 69.62 91.88 64.15 86.34
  Q 46.97 68.93 36.39 58.81
  Q 34.99 57.47 32.84 55.99
  A 0.16 0.16 0.0 0 0 32.59 56.13
  L 32.59 127.73
  A 0.10 0.10 0.0 0 1 32.49 127.83
  L 23.30 127.83
  A 0.13 0.13 0.0 0 1 23.17 127.70
  L 23.17 35.26
  A 0.52 0.52 0.0 0 1 24.05 34.88
  C 31.65 41.98 40.35 49.87 49.57 59.15
  Q 72.75 82.48 108.78 117.37
  Q 110.39 118.92 113.09 119.01
  Q 121.63 119.27 134.55 118.85
  A 1.45 1.45 0.0 0 0 135.95 117.40
  L 135.95 90.70
  A 0.74 0.74 0.0 0 0 135.21 89.96
  L 111.52 89.96
  A 0.88 0.87 90.0 0 1 110.65 89.08
  L 110.65 81.66
  A 0.67 0.67 0.0 0 1 111.32 80.99
  L 144.57 80.99
  A 0.78 0.78 0.0 0 1 145.35 81.77
  L 145.35 127.72
  A 0.22 0.21 -90.0 0 1 145.14 127.94
  Z"
/>
</svg>
